<svg id="Layer_1" data-name="Layer 1" xmlns="http://www.w3.org/2000/svg" xmlns:xlink="http://www.w3.org/1999/xlink" viewBox="0 0 1000 242.7"><defs><style>.cls-1{fill:#29184c;}.cls-2{fill:url(#linear-gradient);}.cls-3{fill:url(#linear-gradient-2);}.cls-4{fill:url(#linear-gradient-3);}.cls-5{fill:url(#linear-gradient-4);}.cls-6{fill:url(#linear-gradient-5);}</style><linearGradient id="linear-gradient" x1="296.53" y1="240.39" x2="296.53" y2="129.94" gradientUnits="userSpaceOnUse"><stop offset="0" stop-color="#57aadf"/><stop offset="1" stop-color="#29184c"/></linearGradient><linearGradient id="linear-gradient-2" x1="382.14" y1="2.53" x2="382.14" y2="115.58" xlink:href="#linear-gradient"/><linearGradient id="linear-gradient-3" x1="983.78" y1="117.85" x2="379.4" y2="117.85" xlink:href="#linear-gradient"/><linearGradient id="linear-gradient-4" x1="971.34" y1="117.85" x2="366.96" y2="117.85" xlink:href="#linear-gradient"/><linearGradient id="linear-gradient-5" x1="971.34" y1="115.36" x2="366.96" y2="115.36" xlink:href="#linear-gradient"/></defs><title>Exosis colored Fill</title><path class="cls-1" d="M207.93,8.29a95.34,95.34,0,0,1,47.18,57.4c.82,2.79,1.52,5.6,2.08,8.48A95,95,0,0,0,272.09,104l0,.06A8.25,8.25,0,0,0,282.92,106l2.81-1.64c3.16-1.83,6.14-3.56,8.69-5.33C310,88.19,320.48,71.81,326.57,54c2.55-7.46,3.81-15.53,2.36-23.28-3.06-16.37-19.11-26-35.05-26H208.7A1.85,1.85,0,0,0,207.93,8.29Z"/><path class="cls-1" d="M471,234.08a95.33,95.33,0,0,1-47.18-57.41c-.82-2.78-1.52-5.59-2.09-8.47a94.74,94.74,0,0,0-14.89-29.78l0-.07A8.26,8.26,0,0,0,396,136.41c-.95.56-1.89,1.11-2.82,1.64-3.15,1.83-6.13,3.55-8.68,5.33-15.57,10.8-26.07,27.18-32.15,45-2.55,7.46-3.81,15.53-2.36,23.28,3.06,16.37,19.11,26,35.05,26h85.17A1.85,1.85,0,0,0,471,234.08Z"/><path class="cls-2" d="M272.09,138.74a94.68,94.68,0,0,0-14.89,29.79c-.56,2.88-1.26,5.69-2.08,8.47a95.38,95.38,0,0,1-47.18,57.39l-.1,0a1.87,1.87,0,0,0,.87,3.52h85.18a39.08,39.08,0,0,0,31.35-15.71,95.32,95.32,0,0,0,14.89-29.79c.56-2.88,1.26-5.68,2.08-8.47,5.87-20,18.34-36.9,34.75-49.55a72.94,72.94,0,0,1,8.47-5.47,1.57,1.57,0,0,0-.78-2.93H298.74c-9.59,0-19,3.77-25.27,11Q272.75,137.87,272.09,138.74Z"/><path class="cls-3" d="M470.38,4.75H385.2a39.09,39.09,0,0,0-31.35,15.71A94.73,94.73,0,0,0,339,50.24c-.56,2.88-1.26,5.69-2.08,8.48a92.82,92.82,0,0,1-35.79,49.89c-2.58,1.79-5.4,3.46-8.27,5.13a1.57,1.57,0,0,0,.78,2.93h86.84a33.37,33.37,0,0,0,23.8-9.53A29.11,29.11,0,0,0,407,104a95.16,95.16,0,0,0,14.89-29.78c.56-2.88,1.26-5.69,2.08-8.48a95.37,95.37,0,0,1,47.18-57.4A1.85,1.85,0,0,0,470.38,4.75Z"/><path class="cls-4" d="M532.35,26.3a92.25,92.25,0,0,1,46.33,12.33,88.93,88.93,0,0,1,33.85,33.45,89.83,89.83,0,0,1,12.16,45.61,91.44,91.44,0,0,1-12.24,46.09,88.37,88.37,0,0,1-33.37,33.53,92.19,92.19,0,0,1-46.57,12.08q-37.45,0-63.94-26.64T442.08,118q0-40.82,29.93-68Q498.26,26.31,532.35,26.3Zm.72,41.13q-20.36,0-33.91,14.17t-13.54,36.25q0,22.72,13.38,36.81t33.91,14.08q20.52,0,34.15-14.24t13.62-36.65q0-22.41-13.38-36.41T533.07,67.43Z"/><path class="cls-5" d="M754.53,55.11l-9,9a29.6,29.6,0,0,1-34.56,5.34,29.14,29.14,0,0,0-13.38-3.64Q690.2,65.84,686,69a9.38,9.38,0,0,0-4.16,7.76,9.53,9.53,0,0,0,2.64,6.48q2.64,3,13,8.08l16,8q25.29,12.5,34.73,25.45t9.44,30.41q0,23.21-17,38.73T695,209.39q-38.1,0-60.82-29.77l8.38-9.12a29.84,29.84,0,0,1,36.3-5.79l.21.11q10.32,5.52,18.33,5.52,8.64,0,13.92-4.16t5.28-9.6q0-10.08-19-19.69l-14.73-7.36q-42.24-21.28-42.25-53.29,0-20.65,15.93-35.29T697.24,26.3a70.73,70.73,0,0,1,57.29,28.81Z"/><path class="cls-6" d="M805.21,25.8a26.72,26.72,0,0,1,19.71,8.33,27.64,27.64,0,0,1,8.22,20.16A27.36,27.36,0,0,1,825,74.22a26.43,26.43,0,0,1-19.47,8.24,26.78,26.78,0,0,1-19.87-8.4,28.11,28.11,0,0,1-8.22-20.41A26.84,26.84,0,0,1,785.58,34,26.7,26.7,0,0,1,805.21,25.8Zm-4,71.7h25.89v89.61a17.8,17.8,0,0,1-17.8,17.8H783.37V115.3A17.79,17.79,0,0,1,801.17,97.5Z"/><path class="cls-5" d="M975.42,55.11l-9,9a29.61,29.61,0,0,1-34.56,5.34,29.14,29.14,0,0,0-13.39-3.64q-7.37,0-11.52,3.12a9.35,9.35,0,0,0-4.16,7.76,9.53,9.53,0,0,0,2.64,6.48q2.64,3,13,8.08l16,8q25.27,12.5,34.73,25.45t9.44,30.41q0,23.21-17,38.73t-45.7,15.52q-38.08,0-60.81-29.77l8.37-9.12a29.86,29.86,0,0,1,36.31-5.79l.21.11q10.32,5.52,18.32,5.52,8.64,0,13.93-4.16t5.28-9.6q0-10.08-19-19.69l-14.72-7.36q-42.26-21.28-42.25-53.29,0-20.65,15.92-35.29T918.12,26.3a70.73,70.73,0,0,1,57.3,28.81Z"/><path class="cls-1" d="M169,164.46A58.72,58.72,0,0,1,141.36,171q-20.49,0-33.69-11a45.33,45.33,0,0,1-14.78-23H50.76A85.41,85.41,0,0,0,75,183.55q25.76,25.84,66.73,25.84,26.41,0,45.62-9.36t33-28.89l-16.07-7.54A39.63,39.63,0,0,0,169,164.46Z"/><path class="cls-1" d="M206.18,52.63Q180.41,26.3,139.28,26.3q-38.73,0-64.41,26.33A87.29,87.29,0,0,0,53.2,89.48H96.66c4-7.29,8.22-12.63,12.72-16q13.78-10.24,32.06-10.25,16.84,0,29.58,9.13A43.86,43.86,0,0,1,188.1,96.08H21.38v10a24.32,24.32,0,0,0,24.33,24.32H180.42v.05h43a8.49,8.49,0,0,0,8.49-8.32Q232,79,206.18,52.63Z"/></svg>