<svg id="Layer_1" data-name="Layer 1" xmlns="http://www.w3.org/2000/svg" xmlns:xlink="http://www.w3.org/1999/xlink" viewBox="0 0 1000 1000"><defs><style>.cls-1{fill:#29184c;}.cls-2{fill:url(#linear-gradient);}.cls-3{fill:url(#linear-gradient-2);}</style><linearGradient id="linear-gradient" x1="355.43" y1="900.17" x2="355.43" y2="528.88" gradientUnits="userSpaceOnUse"><stop offset="0" stop-color="#57aadf"/><stop offset="1" stop-color="#29184c"/></linearGradient><linearGradient id="linear-gradient-2" x1="643.19" y1="100.61" x2="643.19" y2="480.63" xlink:href="#linear-gradient"/></defs><title>X colored Fill</title><path class="cls-1" d="M57.6,119.94a320.67,320.67,0,0,1,158.59,193c2.75,9.37,5.11,18.81,7,28.49a319.43,319.43,0,0,0,50.06,100.11l.15.21c8.4,11.22,24.19,13.64,36.27,6.53,3.18-1.88,6.34-3.72,9.45-5.52,10.61-6.14,20.63-11.94,29.2-17.89,52.33-36.32,87.62-91.39,108.07-151.12,8.59-25.07,12.82-52.18,7.95-78.24-10.29-55-64.26-87.43-117.82-87.43H60.2A6.22,6.22,0,0,0,57.6,119.94Z"/><path class="cls-1" d="M941.85,879A320.61,320.61,0,0,1,783.26,686c-2.76-9.36-5.12-18.81-7-28.49a319.72,319.72,0,0,0-50-100.11l-.16-.2c-8.39-11.22-24.19-13.64-36.26-6.53q-4.78,2.82-9.46,5.51c-10.61,6.14-20.62,11.94-29.2,17.89-52.33,36.32-87.62,91.39-108.07,151.12-8.58,25.08-12.82,52.18-7.94,78.24,10.28,55,64.25,87.44,117.81,87.44H939.25A6.22,6.22,0,0,0,941.85,879Z"/><path class="cls-2" d="M273.27,558.48a317.83,317.83,0,0,0-50.06,100.11c-1.89,9.68-4.25,19.12-7,28.49A320.52,320.52,0,0,1,57.62,880c-.08.08-.24.08-.32.16-5.82,3-3.62,11.8,2.92,11.8H346.54a131.3,131.3,0,0,0,105.38-52.81A319.53,319.53,0,0,0,502,739c1.89-9.68,4.25-19.12,7-28.49,19.74-67.09,61.65-124,116.79-166.55a246,246,0,0,1,28.5-18.41,5.26,5.26,0,0,0-2.63-9.83H362.83c-32.21,0-63.79,12.67-84.92,37C276.29,554.59,274.74,556.5,273.27,558.48Z"/><path class="cls-3" d="M939.8,108.06H653.48A131.35,131.35,0,0,0,548.1,160.87,317.83,317.83,0,0,0,498,261c-1.89,9.68-4.25,19.12-7,28.49C471.13,357.07,428.63,417,370.76,457.18c-8.68,6-18.15,11.63-27.82,17.24a5.28,5.28,0,0,0,2.64,9.84h291.9c29.79,0,59-10.84,80-32a99.45,99.45,0,0,0,9.26-10.74,319.43,319.43,0,0,0,50.06-100.11c1.89-9.68,4.25-19.12,7-28.49a320.67,320.67,0,0,1,158.59-193A6.22,6.22,0,0,0,939.8,108.06Z"/></svg>